<svg xmlns="http://www.w3.org/2000/svg" viewBox="0 0 32 32" width="32" height="32">
  <defs>
    <linearGradient id="grad1" x1="0%" y1="0%" x2="100%" y2="100%">
      <stop offset="0%" style="stop-color:#667eea;stop-opacity:1" />
      <stop offset="100%" style="stop-color:#764ba2;stop-opacity:1" />
    </linearGradient>
  </defs>
  
  <!-- Background Circle -->
  <circle cx="16" cy="16" r="15" fill="url(#grad1)" stroke="#fff" stroke-width="1"/>
  
  <!-- Robot Head -->
  <rect x="8" y="6" width="16" height="12" rx="2" fill="#fff" opacity="0.9"/>
  
  <!-- Eyes -->
  <circle cx="12" cy="10" r="1.5" fill="#667eea"/>
  <circle cx="20" cy="10" r="1.5" fill="#667eea"/>
  
  <!-- Antenna -->
  <line x1="16" y1="6" x2="16" y2="4" stroke="#fff" stroke-width="1.5"/>
  <circle cx="16" cy="4" r="1" fill="#fff"/>
  
  <!-- Mouth -->
  <rect x="11" y="13" width="10" height="2" rx="1" fill="#667eea"/>
  
  <!-- Body -->
  <rect x="10" y="18" width="12" height="8" rx="1" fill="#fff" opacity="0.8"/>
  
  <!-- Control Panel -->
  <rect x="12" y="20" width="8" height="4" rx="0.5" fill="#667eea" opacity="0.7"/>
  <circle cx="14" cy="22" r="0.5" fill="#fff"/>
  <circle cx="16" cy="22" r="0.5" fill="#fff"/>
  <circle cx="18" cy="22" r="0.5" fill="#fff"/>
  
  <!-- Legs -->
  <rect x="12" y="26" width="3" height="4" rx="1" fill="#fff" opacity="0.8"/>
  <rect x="17" y="26" width="3" height="4" rx="1" fill="#fff" opacity="0.8"/>
</svg>
